<svg xmlns="http://www.w3.org/2000/svg" viewBox="0 0 128 128" role="img" aria-label="金蝉记账">
  <defs>
    <linearGradient id="g" x1="0%" y1="0%" x2="100%" y2="100%">
      <stop offset="0%" stop-color="#f5e6b8" />
      <stop offset="100%" stop-color="#c9a227" />
    </linearGradient>
  </defs>
  <rect width="128" height="128" rx="28" fill="url(#g)" />
  <ellipse cx="64" cy="72" rx="28" ry="34" fill="#a8841a" opacity="0.95" />
  <ellipse cx="64" cy="68" rx="22" ry="28" fill="#d4ad2f" />
  <path
    d="M36 58c-8-12 0-24 12-20 4 8-2 18-12 20zm56 0c8-12 0-24-12-20-4 8 2 18 12 20z"
    fill="#8a6d18"
  />
  <circle cx="52" cy="66" r="4" fill="#2c2416" />
  <circle cx="76" cy="66" r="4" fill="#2c2416" />
  <path d="M58 82q6 6 12 0" fill="none" stroke="#2c2416" stroke-width="2.5" stroke-linecap="round" />
  <path
    d="M64 38c-2-10 8-16 14-8 6 8-2 18-14 8z"
    fill="#5c7a52"
    opacity="0.9"
  />
</svg>
